<svg width="1024" height="1024" viewBox="0 0 1024 1024" fill="none" xmlns="http://www.w3.org/2000/svg">
  <defs>
    <linearGradient id="bg" x1="160" y1="120" x2="864" y2="904" gradientUnits="userSpaceOnUse">
      <stop stop-color="#FCF8F1"/>
      <stop offset="1" stop-color="#EFE7DA"/>
    </linearGradient>
    <linearGradient id="accent" x1="278" y1="266" x2="764" y2="730" gradientUnits="userSpaceOnUse">
      <stop stop-color="#2F3532"/>
      <stop offset="1" stop-color="#191C1A"/>
    </linearGradient>
    <clipPath id="clip">
      <rect x="96" y="96" width="832" height="832" rx="220"/>
    </clipPath>
  </defs>

  <rect width="1024" height="1024" rx="240" fill="#F4EFE6"/>
  <g clip-path="url(#clip)">
    <rect x="96" y="96" width="832" height="832" rx="220" fill="url(#bg)"/>
    <g opacity="0.5">
      <path d="M96 208H928" stroke="#D9D0C1" stroke-width="2"/>
      <path d="M96 320H928" stroke="#D9D0C1" stroke-width="2"/>
      <path d="M96 432H928" stroke="#D9D0C1" stroke-width="2"/>
      <path d="M96 544H928" stroke="#D9D0C1" stroke-width="2"/>
      <path d="M96 656H928" stroke="#D9D0C1" stroke-width="2"/>
      <path d="M96 768H928" stroke="#D9D0C1" stroke-width="2"/>
      <path d="M208 96V928" stroke="#D9D0C1" stroke-width="2"/>
      <path d="M320 96V928" stroke="#D9D0C1" stroke-width="2"/>
      <path d="M432 96V928" stroke="#D9D0C1" stroke-width="2"/>
      <path d="M544 96V928" stroke="#D9D0C1" stroke-width="2"/>
      <path d="M656 96V928" stroke="#D9D0C1" stroke-width="2"/>
      <path d="M768 96V928" stroke="#D9D0C1" stroke-width="2"/>
    </g>
    <rect x="164" y="164" width="696" height="696" rx="180" fill="#FCF8F1" fill-opacity="0.92" stroke="#E1D7C9" stroke-width="10"/>
    <path d="M302 728V296H392L512 534L632 296H722V728H638V436L534 632H490L386 436V728H302Z" fill="url(#accent)"/>
    <circle cx="754" cy="270" r="52" fill="#5A8FA8"/>
    <circle cx="754" cy="270" r="20" fill="#FCF8F1" fill-opacity="0.65"/>
  </g>
</svg>
